PathFileType	4	(X/Y/Z)	/Users/mathieubourgeois/Desktop/Analyse/Traitement/Sujet_07/Transformed_Static_Sujet_07_Tpose.trc
DataRate	CameraRate	NumFrames	NumMarkers	Units	OrigDataRate	OrigDataStartFrame	OrigNumFrames
120.000000	120.000000	4	36	mm	120.000000	250	286
Frame#	Time	RFHD			LFHD			RBHD			LBHD			C7			CLAV			RSHO			LSHO			STRN			T10			RBWT			LBWT			RFWT			LFWT			RKNI			LKNI			RKNE			LKNE			LANI			RANI			LANE			RANE			LTOE			RTOE			LHEE			RHEE			RHUM			LHUM			RRAD			LRAD			RWRA			RWRB			LWRA			LWRB			LCAR			RCAR			
		X1	Y1	Z1	X2	Y2	Z2	X3	Y3	Z3	X4	Y4	Z4	X5	Y5	Z5	X6	Y6	Z6	X7	Y7	Z7	X8	Y8	Z8	X9	Y9	Z9	X10	Y10	Z10	X11	Y11	Z11	X12	Y12	Z12	X13	Y13	Z13	X14	Y14	Z14	X15	Y15	Z15	X16	Y16	Z16	X17	Y17	Z17	X18	Y18	Z18	X19	Y19	Z19	X20	Y20	Z20	X21	Y21	Z21	X22	Y22	Z22	X23	Y23	Z23	X24	Y24	Z24	X25	Y25	Z25	X26	Y26	Z26	X27	Y27	Z27	X28	Y28	Z28	X29	Y29	Z29	X30	Y30	Z30	X31	Y31	Z31	X32	Y32	Z32	X33	Y33	Z33	X34	Y34	Z34	X35	Y35	Z35	X36	Y36	Z36	

251	2.083333333333333	-534.751953125	1762.759521484375	332.9263610839842	-400.9480895996094	1760.26904296875	342.6565551757811	-538.7052612304688	1755.330810546875	178.6764678955076	-396.1314697265625	1751.55078125	174.7325286865233	-466.7352905273438	1586.453491210938	151.3629302978514	-480.3208618164063	1534.388793945312	272.6853637695311	-621.1520385742188	1597.971557617188	178.5069274902342	-331.6015625	1598.609252929688	175.1172943115233	-478.2364196777344	1347.506958007812	313.4266662597655	-472.5772705078125	1339.770629882812	99.78527832031236	-536.6338500976562	1099.499145507812	180.5693206787108	-421.6672058105469	1093.92529296875	178.0143280029296	-586.1502075195312	1063.891845703125	354.8922424316405	-370.5405578613282	1064.562744140625	348.3046874999999	-543.6256713867188	476.0728759765625	206.5351409912109	-440.2616882324219	476.743896484375	172.9697265624999	-646.9585571289062	532.9879760742188	207.8662872314452	-333.8860473632812	518.5240478515625	185.3815155029296	-426.5989074707031	86.50534820556642	210.8128509521484	-541.0759887695312	89.65157318115236	203.2179565429687	-342.8424072265625	69.01655578613283	179.910171508789	-626.7299194335938	72.26904296875001	179.5126647949218	-350.5545959472657	29.43396949768069	397.3605346679687	-605.3876953125	31.9797229766846	393.1763305664062	-390.5643615722656	50.33383941650391	132.9606323242187	-583.4789428710938	51.04693222045899	127.6924514770507	-938.205322265625	1467.2431640625	221.6375885009764	-18.99599647521975	1440.912231445312	221.4826354980468	-943.0191650390625	1517.677490234375	177.9592895507811	-4.127839088439964	1495.369873046875	182.7032623291015	-1211.783325195312	1592.063720703125	220.0810546874998	-1217.258544921875	1525.746948242188	190.1451721191404	255.0947723388672	1549.069091796875	247.0742187499999	266.2643432617188	1476.12744140625	226.5545043945312	360.4046630859375	1531.420532226562	221.8636474609375	-1320.27734375	1570.531494140625	199.5967864990232	
252	2.091666666666667	-534.645263671875	1762.741333007812	333.0893249511717	-400.8430786132813	1760.177001953125	342.7832946777342	-538.6625366210938	1755.407958984375	178.7993316650389	-396.079345703125	1751.549072265625	174.8460083007811	-466.7489929199219	1586.444702148438	151.4454040527342	-480.3230285644532	1534.382080078125	272.7682189941405	-621.16748046875	1597.957641601562	178.5783691406248	-331.6278686523438	1598.617431640625	175.1994781494139	-478.2350463867188	1347.503662109375	313.4955749511718	-472.5605163574219	1339.755981445312	99.85503387451158	-536.580078125	1099.492919921875	180.6762084960936	-421.6225891113281	1093.919677734375	178.0842132568358	-586.1343994140625	1063.877685546875	354.989532470703	-370.5132446289063	1064.558349609375	348.403839111328	-543.6104125976562	476.0826721191406	206.5882110595702	-440.2356872558594	476.7305297851562	173.0179901123046	-646.9404296875	532.9957885742188	207.9396667480468	-333.8751831054688	518.5198974609375	185.4522247314453	-426.5933532714844	86.51465606689455	210.8190765380859	-541.0668334960938	89.65581512451173	203.2260437011718	-342.841064453125	69.03010559082033	179.9134063720703	-626.7252807617188	72.2768020629883	179.5152893066405	-350.5551452636719	29.42819023132327	397.3671264648437	-605.3825073242188	31.98659324645999	393.1825866699218	-390.5539245605469	50.33839416503907	132.9612274169921	-583.477294921875	51.04208755493165	127.693733215332	-938.2067260742188	1467.223266601562	221.7989807128904	-19.00487136840823	1440.958251953125	221.6375732421874	-943.0111694335938	1517.6318359375	178.082077026367	-4.137636661529563	1495.412475585938	182.8092803955077	-1211.802490234375	1591.972900390625	220.2044372558591	-1217.268676757812	1525.64892578125	190.2732086181638	255.0624084472656	1549.18017578125	247.2462768554687	266.2703247070312	1476.2646484375	226.7323608398437	360.3878784179688	1531.533569335938	222.0167694091797	-1320.306640625	1570.38916015625	199.7159423828122	
253	2.1	-534.558837890625	1762.7373046875	333.2203674316405	-400.7502136230469	1760.089477539062	342.9007263183592	-538.5888061523438	1755.4677734375	178.9543151855467	-396.0485229492188	1751.528930664062	174.9553985595701	-466.753662109375	1586.447631835938	151.5263671874999	-480.3197937011719	1534.375732421875	272.8482055664061	-621.1824951171875	1597.9560546875	178.6565856933592	-331.6510620117188	1598.6279296875	175.2784423828124	-478.2438659667969	1347.48974609375	313.5455322265624	-472.5482788085938	1339.734375	99.92543792724595	-536.5667724609375	1099.483032226562	180.7816009521483	-421.6054992675781	1093.918212890625	178.177032470703	-586.1004638671875	1063.88232421875	355.1120605468749	-370.4899902343751	1064.5537109375	348.4864807128905	-543.587158203125	476.0889892578125	206.6341400146484	-440.2123718261719	476.7418212890625	173.0881195068359	-646.9304809570312	533.0107421875	207.997833251953	-333.8398742675781	518.5284423828125	185.5077972412109	-426.5986328125	86.50245666503908	210.8160095214843	-541.0686645507812	89.64501953125001	203.2240295410156	-342.8444519042969	69.02194976806642	179.9204711914062	-626.7238159179688	72.2846145629883	179.5171661376952	-350.5498657226563	29.41530799865725	397.3728942871093	-605.3785400390625	31.97843933105471	393.1780395507812	-390.5587158203125	50.34179687500001	132.9597473144531	-583.4676513671875	51.04059982299805	127.6934967041015	-938.2020874023438	1467.194458007812	221.9379730224607	-19.01792907714847	1441.006103515625	221.7622680664062	-943.0044555664062	1517.590209960938	178.2256011962889	-4.165260791778587	1495.445922851562	182.9131469726562	-1211.821533203125	1591.88037109375	220.3304290771482	-1217.27294921875	1525.557373046875	190.4107208251951	255.0396118164062	1549.31396484375	247.3955688476562	266.2579650878906	1476.37744140625	226.9064331054687	360.3465576171875	1531.657104492188	222.1606140136718	-1320.32568359375	1570.271118164062	199.8553161621091	
254	2.108333333333333	-534.4893798828125	1762.719482421875	333.3515624999998	-400.6509399414063	1760.013427734375	343.0137939453123	-538.5389404296875	1755.533813476562	179.0502929687498	-395.9823913574219	1751.508666992188	175.065216064453	-466.7657165527344	1586.448974609375	151.5859069824217	-480.3238525390626	1534.373291015625	272.9386291503905	-621.1842041015625	1597.956176757812	178.7405853271483	-331.6851806640625	1598.648681640625	175.3464355468749	-478.2320556640626	1347.469970703125	313.5955810546874	-472.5470886230469	1339.728515625	99.9910736083983	-536.5300903320312	1099.488891601562	180.876007080078	-421.5724487304688	1093.926513671875	178.2571716308593	-586.0624389648438	1063.8779296875	355.2054138183593	-370.4602661132813	1064.5439453125	348.5746154785155	-543.5820922851562	476.0914001464844	206.6859741210937	-440.1957092285156	476.7437133789062	173.1226501464843	-646.9149169921875	533.009521484375	208.031036376953	-333.8225402832031	518.5343017578125	185.5746002197265	-426.5932922363281	86.50982666015626	210.8217010498046	-541.0613403320312	89.64491271972658	203.239028930664	-342.8487854003906	69.01910400390626	179.9286346435547	-626.7169799804688	72.29046630859376	179.5279235839843	-350.5483398437501	29.41485786437991	397.3807678222656	-605.3788452148438	31.97777938842776	393.1840515136718	-390.5517578125	50.35097122192384	132.9830322265624	-583.4786987304688	51.0516700744629	127.6948013305663	-938.1958618164062	1467.151000976562	222.0760192871092	-19.0271968841553	1441.044677734375	221.8859100341796	-942.995361328125	1517.55224609375	178.3522186279295	-4.167987346649192	1495.494750976562	183.003692626953	-1211.833740234375	1591.789306640625	220.4867706298826	-1217.269897460938	1525.461303710938	190.5643768310545	254.9893341064453	1549.441284179688	247.5571594238281	266.2285766601562	1476.503662109375	227.0850677490234	360.3221435546875	1531.80517578125	222.3070220947265	-1320.328735351562	1570.141845703125	199.9947357177732	
